<svg viewBox="0 -6 71 97" fill="none" xmlns="http://www.w3.org/2000/svg" class="marker">
<g class="marker-drop" filter="url(#filter0_d)">
<path stroke="#609FFF" stroke-width="2" d="M69 34.6111C69 53.7263 34.5 89 34.5 89C34.5 89 0 53.7263 0 34.6111C0 15.4959 15.4462 0 34.5 0C53.5538 0 69 15.4959 69 34.6111Z" />
</g>
<g class="marker-lines">
<path d="M53.7021 52.5676L50.9304 27.2064C50.8868 18.1569 43.766 10.8091 35.0195 10.8091C26.273 10.8091 19.1522 18.1574 19.1091 27.2064L16.337 52.5676C16.2906 52.992 16.4282 53.4158 16.7132 53.7244C16.9982 54.0335 17.4019 54.1982 17.8115 54.1665C17.8403 54.1646 20.675 53.9697 23.2279 53.9697C25.0274 53.9697 25.9218 54.0657 26.3555 54.1468C28.5271 54.551 32.7659 57.4003 34.216 58.4644C34.4569 58.6406 34.7382 58.7294 35.0195 58.7294C35.3013 58.7294 35.584 58.6401 35.8249 58.4625C37.2295 57.4281 41.3414 54.6494 43.4699 54.2231C43.9597 54.1252 44.9959 54.0086 47.1531 54.0086C49.6347 54.0086 52.2122 54.1656 52.2377 54.1675C52.645 54.1872 53.0463 54.0288 53.329 53.7206C53.6117 53.4124 53.7484 52.99 53.7021 52.5676ZM47.1531 51.1286C45.2174 51.1286 43.8406 51.216 42.9421 51.396C40.4489 51.8952 36.6915 54.371 35.0177 55.5408C33.304 54.3475 29.4066 51.7891 26.8467 51.3119C26.0427 51.1622 24.8587 51.0897 23.227 51.0897C21.8201 51.0897 20.3608 51.1444 19.2838 51.1977L21.8799 27.4516C21.8859 27.3979 21.8887 27.3436 21.8887 27.2899C21.8887 19.7904 27.7787 13.6896 35.0191 13.6896C42.259 13.6896 48.1494 19.7904 48.1494 27.2899C48.1494 27.3441 48.1527 27.3984 48.1582 27.4516L50.7552 51.2107C49.7709 51.1694 48.4609 51.1286 47.1531 51.1286Z" />
<path d="M26.678 29.0648C28.0536 29.0648 29.1688 27.9097 29.1688 26.4848C29.1688 25.0599 28.0536 23.9048 26.678 23.9048C25.3023 23.9048 24.1871 25.0599 24.1871 26.4848C24.1871 27.9097 25.3023 29.0648 26.678 29.0648Z" />
<path d="M43.361 29.0648C44.7366 29.0648 45.8518 27.9097 45.8518 26.4848C45.8518 25.0599 44.7366 23.9048 43.361 23.9048C41.9853 23.9048 40.8701 25.0599 40.8701 26.4848C40.8701 27.9097 41.9853 29.0648 43.361 29.0648Z" />
<path d="M35.0195 46.8442L41.2236 30.2031H28.8143L35.0195 46.8442ZM35.0195 38.8503L32.8692 33.0831H37.1697L35.0195 38.8503Z" />
</g>
<defs>
<filter id="filter0_d" x="0" y="0" filterUnits="userSpaceOnUse" color-interpolation-filters="sRGB">
<feFlood flood-opacity="0" result="BackgroundImageFix"/>
<feColorMatrix in="SourceAlpha" type="matrix" values="0 0 0 0 0 0 0 0 0 0 0 0 0 0 0 0 0 0 127 0"/>
<feOffset dx="1" dy="3"/>
<feGaussianBlur stdDeviation="3"/>
<feColorMatrix type="matrix" values="0 0 0 0 0 0 0 0 0 0 0 0 0 0 0 0 0 0 0.19 0"/>
<feBlend mode="normal" in2="BackgroundImageFix" result="effect1_dropShadow"/>
<feBlend mode="normal" in="SourceGraphic" in2="effect1_dropShadow" result="shape"/>
</filter>
<style>
@import url("../../main.css")
</style>
</defs>
</svg>
